<?xml version="1.0" encoding="utf-8"?>
<!-- Generator: Adobe Illustrator 26.0.1, SVG Export Plug-In . SVG Version: 6.00 Build 0)  -->
<svg version="1.1" id="Layer_1" xmlns="http://www.w3.org/2000/svg" xmlns:xlink="http://www.w3.org/1999/xlink" x="0px" y="0px"
	 viewBox="0 0 24 24" style="enable-background:new 0 0 24 24;" xml:space="preserve">
<path d="M22.6,19.6c0,0.1,0,0.2,0,0.4c-0.1,0.5-0.4,0.8-0.7,1.1c-0.3,0.3-0.5,0.5-0.8,0.8c-0.3,0.3-0.6,0.6-1.1,0.7
	c-0.2,0-0.3,0-0.5,0c-0.4-0.1-0.8-0.4-1.1-0.7c-2.1-2.1-4.2-4.2-6.3-6.3c-0.2-0.2-0.2-0.2-0.5,0c-2.1,2.1-4.2,4.2-6.3,6.3
	c-0.3,0.3-0.6,0.6-1.1,0.7c-0.2,0-0.3,0-0.5,0c-0.4-0.1-0.7-0.3-0.9-0.5c-0.4-0.4-0.8-0.8-1.2-1.2c-0.2-0.2-0.3-0.4-0.4-0.6
	c-0.2-0.6,0-1.1,0.4-1.6c2.2-2.2,4.3-4.3,6.5-6.5c0.2-0.2,0.2-0.2,0-0.5C6.2,9.6,4,7.4,1.9,5.3c-0.7-0.7-0.7-1.5,0-2.2
	c0.3-0.3,0.7-0.7,1-1C3.2,1.7,3.5,1.5,4,1.4c0.2,0,0.3,0,0.5,0c0.4,0.1,0.8,0.4,1.1,0.7c2.1,2.1,4.2,4.2,6.3,6.3
	c0.2,0.2,0.2,0.2,0.5,0c2.1-2.1,4.2-4.2,6.3-6.3c0.3-0.3,0.6-0.6,1.1-0.7c0.2,0,0.3,0,0.5,0c0.4,0.1,0.8,0.4,1.1,0.7
	c0.2,0.3,0.5,0.5,0.8,0.8c0.3,0.3,0.6,0.7,0.7,1.2c0,0.1,0,0.2,0,0.4c-0.1,0.5-0.4,0.8-0.7,1.1c-2.1,2.1-4.2,4.2-6.3,6.3
	c-0.2,0.2-0.2,0.2,0,0.5c2.1,2.1,4.2,4.2,6.3,6.3C22.2,18.8,22.5,19.2,22.6,19.6z"/>
</svg>
