<?xml version="1.0" encoding="utf-8"?>
<!-- Generator: Adobe Illustrator 26.0.1, SVG Export Plug-In . SVG Version: 6.00 Build 0)  -->
<svg version="1.1" id="Layer_1" xmlns="http://www.w3.org/2000/svg" xmlns:xlink="http://www.w3.org/1999/xlink" x="0px" y="0px"
	 viewBox="0 0 24 24" style="enable-background:new 0 0 24 24;" xml:space="preserve">
<g>
	<path d="M12.4,1.3c0.4,0.1,0.8,0.1,1.1,0.2c0.9,0.2,1.8,0.7,2.5,1.3c0.7,0.6,1.2,1.3,1.6,2.2c0.6,1.4,0.6,2.8,0.1,4.2
		c-0.5,1.3-1,2.5-1.6,3.7c-0.6,1.1-1.3,2.3-2,3.4c-0.6,1.1-1.3,2.1-2,3.1c0,0.1-0.1,0.1-0.2,0.2c-0.2-0.3-0.4-0.6-0.6-0.9
		c-0.7-1.1-1.4-2.1-2-3.2c-0.8-1.3-1.6-2.7-2.2-4.1c-0.4-0.9-0.8-1.9-1.1-2.9C5.8,7.7,5.9,6.8,6.1,6c0.2-0.7,0.5-1.4,0.9-2
		C7.4,3.3,8,2.7,8.8,2.2c0.8-0.5,1.8-0.8,2.7-0.9c0,0,0.1,0,0.1,0C11.9,1.3,12.1,1.3,12.4,1.3z M12,10.5c1.7,0,3.1-1.4,3-3.1
		c0-1.7-1.4-3.1-3.1-3c-1.7,0-3.1,1.4-3,3.1C9,9.1,10.3,10.5,12,10.5z"/>
	<path d="M2.3,22.7c0.7-0.9,1.4-1.7,2.1-2.6c0.9-1.2,1.9-2.3,2.8-3.5c0,0,0.1-0.1,0.2-0.1c0.6,0,1.1,0,1.7,0c0,0,0.1,0,0.1,0
		c0.2,0.3,0.3,0.5,0.5,0.8c-0.1,0-0.2,0-0.2,0c-0.6,0-1.1,0-1.7,0c-0.1,0-0.2,0-0.3,0.1c-0.7,0.9-1.5,1.8-2.2,2.7
		c-0.4,0.5-0.7,0.9-1.1,1.4c0,0,0,0.1-0.1,0.1c5.3,0,10.5,0,15.8,0c-0.2-0.3-0.4-0.5-0.6-0.8c-0.8-1-1.6-2-2.5-3.1
		c-0.1-0.1-0.2-0.3-0.4-0.4c-0.1-0.1-0.1-0.1-0.2-0.1c-0.6,0-1.1,0-1.7,0c-0.1,0-0.1,0-0.2,0c0-0.1,0-0.1,0.1-0.1
		c0.1-0.2,0.3-0.4,0.4-0.7c0,0,0.1-0.1,0.1-0.1c0.6,0,1.2,0,1.7,0c0.1,0,0.1,0,0.2,0.1c0.9,1.1,1.8,2.3,2.7,3.4
		c0.7,0.9,1.4,1.8,2.2,2.7C15.2,22.7,8.8,22.7,2.3,22.7z"/>
</g>
</svg>
