<svg xmlns="http://www.w3.org/2000/svg" xmlns:xlink="http://www.w3.org/1999/xlink" width="3447" zoomAndPan="magnify" viewBox="0 0 2585.25 476.999988" height="636" preserveAspectRatio="xMidYMid meet" version="1.0"><defs><g/><clipPath id="c24a0ac5c8"><path d="M 75.109375 81 L 386 81 L 386 347 L 75.109375 347 Z M 75.109375 81 " clip-rule="nonzero"/></clipPath><clipPath id="f6b70049df"><path d="M 135.773438 137.578125 L 445.972656 137.578125 L 445.972656 402.960938 L 135.773438 402.960938 Z M 135.773438 137.578125 " clip-rule="nonzero"/></clipPath><clipPath id="414dd6870d"><path d="M 385 87.238281 L 664.234375 87.238281 L 664.234375 278 L 385 278 Z M 385 87.238281 " clip-rule="nonzero"/></clipPath><clipPath id="bab43aa0f4"><path d="M 364.996094 192.210938 L 644 192.210938 L 644 383.914062 L 364.996094 383.914062 Z M 364.996094 192.210938 " clip-rule="nonzero"/></clipPath></defs><g clip-path="url(#c24a0ac5c8)"><path fill="#ffffff" d="M 333.191406 81.519531 L 333.191406 253.347656 C 333.191406 253.347656 269.796875 124.476562 194.96875 104.570312 C 117.121094 83.859375 75.109375 133.558594 75.109375 133.558594 C 75.109375 133.558594 187.050781 75.621094 255.246094 204.105469 C 330.882812 346.59375 385.15625 346.59375 385.15625 346.59375 L 385.15625 133.90625 C 385.15625 104.976562 361.890625 81.519531 333.191406 81.519531 " fill-opacity="1" fill-rule="nonzero"/></g><g clip-path="url(#f6b70049df)"><path fill="#ffc30e" d="M 187.894531 402.964844 L 187.894531 231.136719 C 187.894531 231.136719 251.285156 360.007812 326.113281 379.914062 C 403.960938 400.625 445.972656 350.925781 445.972656 350.925781 C 445.972656 350.925781 334.035156 408.863281 265.835938 280.378906 C 190.203125 137.890625 135.929688 137.890625 135.929688 137.890625 L 135.929688 350.578125 C 135.929688 379.507812 159.195312 402.964844 187.894531 402.964844 " fill-opacity="1" fill-rule="nonzero"/></g><g clip-path="url(#414dd6870d)"><path fill="#ffffff" d="M 593.203125 275.96875 C 586.046875 253.273438 564.699219 238.125 541.003906 238.125 L 479.925781 238.125 C 476.210938 238.125 472.582031 237.75 469.074219 237.050781 C 448.632812 232.980469 432.242188 217.628906 426.570312 197.71875 C 425.179688 192.832031 424.417969 187.679688 424.417969 182.34375 C 424.417969 151.542969 449.269531 126.570312 479.925781 126.570312 L 601.800781 126.570312 L 575.101562 178.234375 L 664.230469 87.234375 L 477.433594 87.234375 C 426.539062 87.234375 385.277344 128.699219 385.277344 179.839844 L 385.277344 184.847656 C 385.277344 189.21875 385.589844 193.515625 386.167969 197.71875 C 388.167969 212.164062 393.480469 225.542969 401.308594 237.050781 C 417.476562 260.808594 444.371094 276.609375 474.980469 277.417969 C 475.796875 277.4375 476.613281 277.453125 477.433594 277.453125 L 593.648438 277.453125 C 593.503906 276.957031 593.355469 276.460938 593.203125 275.96875 " fill-opacity="1" fill-rule="nonzero"/></g><g clip-path="url(#bab43aa0f4)"><path fill="#ffc30e" d="M 643.0625 272.449219 C 641.066406 258.007812 635.753906 244.628906 627.917969 233.117188 C 611.753906 209.355469 584.863281 193.558594 554.25 192.753906 C 553.4375 192.730469 552.617188 192.714844 551.796875 192.714844 L 435.109375 192.714844 C 435.253906 193.214844 435.398438 193.707031 435.554688 194.199219 C 442.710938 216.902344 464.058594 232.042969 487.753906 232.042969 L 549.308594 232.042969 C 553.023438 232.042969 556.648438 232.417969 560.15625 233.117188 C 580.601562 237.1875 596.988281 252.539062 602.660156 272.449219 C 604.054688 277.335938 604.8125 282.488281 604.8125 287.824219 C 604.8125 318.628906 579.960938 343.601562 549.308594 343.601562 L 427.941406 343.601562 L 454.125 292.917969 L 404.484375 343.601562 L 404.136719 343.601562 L 364.996094 382.933594 L 365.960938 382.933594 L 364.996094 383.914062 L 367.898438 382.933594 L 551.796875 382.933594 C 602.695312 382.933594 643.953125 341.472656 643.953125 290.324219 L 643.953125 285.320312 C 643.953125 280.953125 643.644531 276.65625 643.0625 272.449219 " fill-opacity="1" fill-rule="nonzero"/></g><g fill="#ffc30e" fill-opacity="1"><g transform="translate(752.53271, 314.218622)"><g><path d="M 142.046875 0 L 116.984375 0 L 41.5625 -114.125 L 41.5625 0 L 16.484375 0 L 16.484375 -153.046875 L 41.5625 -153.046875 L 116.984375 -39.140625 L 116.984375 -153.046875 L 142.046875 -153.046875 Z M 142.046875 0 "/></g></g></g><g fill="#ffc30e" fill-opacity="1"><g transform="translate(932.605845, 314.218622)"><g><path d="M 108.625 -31.21875 L 44.640625 -31.21875 L 33.640625 0 L 7.46875 0 L 62.234375 -153.046875 L 91.25 -153.046875 L 146 0 L 119.625 0 Z M 101.59375 -51.671875 L 76.734375 -122.703125 L 51.671875 -51.671875 Z M 101.59375 -51.671875 "/></g></g></g><g fill="#ffc30e" fill-opacity="1"><g transform="translate(1107.402218, 314.218622)"><g><path d="M 148.203125 -152.828125 L 90.8125 0 L 61.796875 0 L 4.171875 -152.828125 L 31 -152.828125 L 76.296875 -25.734375 L 121.8125 -152.828125 Z M 148.203125 -152.828125 "/></g></g></g><g fill="#ffc30e" fill-opacity="1"><g transform="translate(1281.538991, 314.218622)"><g><path d="M 41.5625 -132.59375 L 41.5625 -87.734375 L 94.328125 -87.734375 L 94.328125 -67.28125 L 41.5625 -67.28125 L 41.5625 -20.453125 L 100.9375 -20.453125 L 100.9375 0 L 16.484375 0 L 16.484375 -153.046875 L 100.9375 -153.046875 L 100.9375 -132.59375 Z M 41.5625 -132.59375 "/></g></g></g><g fill="#ffc30e" fill-opacity="1"><g transform="translate(1418.298916, 314.218622)"><g/></g></g><g fill="#ffc30e" fill-opacity="1"><g transform="translate(1497.014792, 314.218622)"><g><path d="M 66.40625 -152.828125 C 82.675781 -152.828125 96.929688 -149.710938 109.171875 -143.484375 C 121.410156 -137.253906 130.863281 -128.3125 137.53125 -116.65625 C 144.207031 -105 147.546875 -91.398438 147.546875 -75.859375 C 147.546875 -60.316406 144.207031 -46.828125 137.53125 -35.390625 C 130.863281 -23.960938 121.410156 -15.207031 109.171875 -9.125 C 96.929688 -3.039062 82.675781 0 66.40625 0 L 16.484375 0 L 16.484375 -152.828125 Z M 66.40625 -20.453125 C 84.289062 -20.453125 97.992188 -25.285156 107.515625 -34.953125 C 117.046875 -44.628906 121.8125 -58.265625 121.8125 -75.859375 C 121.8125 -93.597656 117.046875 -107.453125 107.515625 -117.421875 C 97.992188 -127.390625 84.289062 -132.375 66.40625 -132.375 L 41.5625 -132.375 L 41.5625 -20.453125 Z M 66.40625 -20.453125 "/></g></g></g><g fill="#ffc30e" fill-opacity="1"><g transform="translate(1674.44957, 314.218622)"><g><path d="M 86.203125 1.546875 C 71.984375 1.546875 58.898438 -1.785156 46.953125 -8.453125 C 35.003906 -15.128906 25.546875 -24.441406 18.578125 -36.390625 C 11.617188 -48.335938 8.140625 -61.785156 8.140625 -76.734375 C 8.140625 -91.691406 11.617188 -105.109375 18.578125 -116.984375 C 25.546875 -128.859375 35.003906 -138.128906 46.953125 -144.796875 C 58.898438 -151.460938 71.984375 -154.796875 86.203125 -154.796875 C 100.566406 -154.796875 113.722656 -151.460938 125.671875 -144.796875 C 137.617188 -138.128906 147.035156 -128.859375 153.921875 -116.984375 C 160.816406 -105.109375 164.265625 -91.691406 164.265625 -76.734375 C 164.265625 -61.785156 160.816406 -48.335938 153.921875 -36.390625 C 147.035156 -24.441406 137.617188 -15.128906 125.671875 -8.453125 C 113.722656 -1.785156 100.566406 1.546875 86.203125 1.546875 Z M 86.203125 -20.234375 C 96.316406 -20.234375 105.332031 -22.539062 113.25 -27.15625 C 121.164062 -31.769531 127.359375 -38.363281 131.828125 -46.9375 C 136.296875 -55.519531 138.53125 -65.453125 138.53125 -76.734375 C 138.53125 -88.023438 136.296875 -97.921875 131.828125 -106.421875 C 127.359375 -114.929688 121.164062 -121.457031 113.25 -126 C 105.332031 -130.539062 96.316406 -132.8125 86.203125 -132.8125 C 76.085938 -132.8125 67.070312 -130.539062 59.15625 -126 C 51.238281 -121.457031 45.039062 -114.929688 40.5625 -106.421875 C 36.09375 -97.921875 33.859375 -88.023438 33.859375 -76.734375 C 33.859375 -65.453125 36.09375 -55.519531 40.5625 -46.9375 C 45.039062 -38.363281 51.238281 -31.769531 59.15625 -27.15625 C 67.070312 -22.539062 76.085938 -20.234375 86.203125 -20.234375 Z M 86.203125 -20.234375 "/></g></g></g><g fill="#ffc30e" fill-opacity="1"><g transform="translate(1868.374095, 314.218622)"><g/></g></g><g fill="#ffc30e" fill-opacity="1"><g transform="translate(1947.090017, 314.218622)"><g><path d="M 66.84375 1.546875 C 56.582031 1.546875 47.347656 -0.25 39.140625 -3.84375 C 30.929688 -7.4375 24.476562 -12.53125 19.78125 -19.125 C 15.09375 -25.726562 12.75 -33.425781 12.75 -42.21875 L 39.578125 -42.21875 C 40.160156 -35.625 42.757812 -30.195312 47.375 -25.9375 C 52 -21.6875 58.488281 -19.5625 66.84375 -19.5625 C 75.488281 -19.5625 82.226562 -21.648438 87.0625 -25.828125 C 91.90625 -30.015625 94.328125 -35.40625 94.328125 -42 C 94.328125 -47.125 92.820312 -51.300781 89.8125 -54.53125 C 86.8125 -57.757812 83.078125 -60.25 78.609375 -62 C 74.140625 -63.757812 67.945312 -65.664062 60.03125 -67.71875 C 50.0625 -70.363281 41.960938 -73.039062 35.734375 -75.75 C 29.503906 -78.457031 24.1875 -82.671875 19.78125 -88.390625 C 15.382812 -94.109375 13.1875 -101.734375 13.1875 -111.265625 C 13.1875 -120.054688 15.382812 -127.75 19.78125 -134.34375 C 24.1875 -140.945312 30.347656 -146.003906 38.265625 -149.515625 C 46.179688 -153.035156 55.34375 -154.796875 65.75 -154.796875 C 80.550781 -154.796875 92.679688 -151.09375 102.140625 -143.6875 C 111.597656 -136.289062 116.835938 -126.144531 117.859375 -113.25 L 90.15625 -113.25 C 89.71875 -118.8125 87.078125 -123.570312 82.234375 -127.53125 C 77.398438 -131.488281 71.023438 -133.46875 63.109375 -133.46875 C 55.921875 -133.46875 50.054688 -131.632812 45.515625 -127.96875 C 40.972656 -124.3125 38.703125 -119.035156 38.703125 -112.140625 C 38.703125 -107.453125 40.128906 -103.601562 42.984375 -100.59375 C 45.847656 -97.59375 49.476562 -95.210938 53.875 -93.453125 C 58.269531 -91.691406 64.28125 -89.785156 71.90625 -87.734375 C 82.019531 -84.953125 90.265625 -82.164062 96.640625 -79.375 C 103.015625 -76.59375 108.4375 -72.304688 112.90625 -66.515625 C 117.382812 -60.722656 119.625 -52.988281 119.625 -43.3125 C 119.625 -35.550781 117.535156 -28.222656 113.359375 -21.328125 C 109.179688 -14.441406 103.097656 -8.90625 95.109375 -4.71875 C 87.117188 -0.539062 77.695312 1.546875 66.84375 1.546875 Z M 66.84375 1.546875 "/></g></g></g><g fill="#ffc30e" fill-opacity="1"><g transform="translate(2101.43904, 314.218622)"><g><path d="M 86.203125 1.546875 C 71.984375 1.546875 58.898438 -1.785156 46.953125 -8.453125 C 35.003906 -15.128906 25.546875 -24.441406 18.578125 -36.390625 C 11.617188 -48.335938 8.140625 -61.785156 8.140625 -76.734375 C 8.140625 -91.691406 11.617188 -105.109375 18.578125 -116.984375 C 25.546875 -128.859375 35.003906 -138.128906 46.953125 -144.796875 C 58.898438 -151.460938 71.984375 -154.796875 86.203125 -154.796875 C 100.566406 -154.796875 113.722656 -151.460938 125.671875 -144.796875 C 137.617188 -138.128906 147.035156 -128.859375 153.921875 -116.984375 C 160.816406 -105.109375 164.265625 -91.691406 164.265625 -76.734375 C 164.265625 -61.785156 160.816406 -48.335938 153.921875 -36.390625 C 147.035156 -24.441406 137.617188 -15.128906 125.671875 -8.453125 C 113.722656 -1.785156 100.566406 1.546875 86.203125 1.546875 Z M 86.203125 -20.234375 C 96.316406 -20.234375 105.332031 -22.539062 113.25 -27.15625 C 121.164062 -31.769531 127.359375 -38.363281 131.828125 -46.9375 C 136.296875 -55.519531 138.53125 -65.453125 138.53125 -76.734375 C 138.53125 -88.023438 136.296875 -97.921875 131.828125 -106.421875 C 127.359375 -114.929688 121.164062 -121.457031 113.25 -126 C 105.332031 -130.539062 96.316406 -132.8125 86.203125 -132.8125 C 76.085938 -132.8125 67.070312 -130.539062 59.15625 -126 C 51.238281 -121.457031 45.039062 -114.929688 40.5625 -106.421875 C 36.09375 -97.921875 33.859375 -88.023438 33.859375 -76.734375 C 33.859375 -65.453125 36.09375 -55.519531 40.5625 -46.9375 C 45.039062 -38.363281 51.238281 -31.769531 59.15625 -27.15625 C 67.070312 -22.539062 76.085938 -20.234375 86.203125 -20.234375 Z M 86.203125 -20.234375 "/></g></g></g><g fill="#ffc30e" fill-opacity="1"><g transform="translate(2295.363565, 314.218622)"><g><path d="M 177.453125 -152.828125 L 177.453125 0 L 152.390625 0 L 152.390625 -104.671875 L 105.765625 0 L 88.390625 0 L 41.5625 -104.671875 L 41.5625 0 L 16.484375 0 L 16.484375 -152.828125 L 43.53125 -152.828125 L 97.1875 -32.984375 L 150.625 -152.828125 Z M 177.453125 -152.828125 "/></g></g></g></svg>